<svg width="883" height="586" viewBox="0 0 883 586" fill="none" xmlns="http://www.w3.org/2000/svg">
<g style="mix-blend-mode:luminosity">
<ellipse rx="223.424" ry="172.445" transform="matrix(0.721227 0.692699 -0.748822 0.662771 493.27 269.057)" fill="url(#paint0_linear_1_12)"/>
</g>
<g style="mix-blend-mode:luminosity">
<ellipse rx="60.2607" ry="171.816" transform="matrix(-0.129345 0.9916 -0.993908 -0.110209 703.773 430.156)" fill="url(#paint1_linear_1_12)"/>
</g>
<g style="mix-blend-mode:luminosity">
<ellipse rx="111.381" ry="114.835" transform="matrix(-0.589489 -0.807776 0.849766 -0.527159 353.919 421.277)" fill="url(#paint2_linear_1_12)"/>
</g>
<g style="mix-blend-mode:luminosity">
<ellipse rx="143.72" ry="83.2576" transform="matrix(-0.974062 -0.226282 0.263612 -0.964629 566.098 473.166)" fill="url(#paint3_linear_1_12)"/>
</g>
<g style="mix-blend-mode:luminosity">
<ellipse rx="214.503" ry="137.318" transform="matrix(0.871736 0.489975 -0.551538 0.83415 262.726 228.865)" fill="url(#paint4_linear_1_12)"/>
</g>
<defs>
<linearGradient id="paint0_linear_1_12" x1="223.424" y1="0" x2="223.424" y2="344.89" gradientUnits="userSpaceOnUse">
<stop stop-color="#E9E9E9"/>
<stop offset="0.0001" stop-color="white"/>
<stop offset="1" stop-color="#E9E9E9" stop-opacity="0"/>
</linearGradient>
<linearGradient id="paint1_linear_1_12" x1="60.2607" y1="0" x2="60.2607" y2="343.632" gradientUnits="userSpaceOnUse">
<stop stop-color="#E9E9E9"/>
<stop offset="0.0001" stop-color="white"/>
<stop offset="1" stop-color="#E9E9E9" stop-opacity="0"/>
</linearGradient>
<linearGradient id="paint2_linear_1_12" x1="111.381" y1="0" x2="111.381" y2="229.671" gradientUnits="userSpaceOnUse">
<stop stop-color="#E9E9E9"/>
<stop offset="0.0001" stop-color="white"/>
<stop offset="1" stop-color="#E9E9E9" stop-opacity="0"/>
</linearGradient>
<linearGradient id="paint3_linear_1_12" x1="143.72" y1="0" x2="143.72" y2="166.515" gradientUnits="userSpaceOnUse">
<stop stop-color="#E9E9E9"/>
<stop offset="0.0001" stop-color="white"/>
<stop offset="1" stop-color="#E9E9E9" stop-opacity="0"/>
</linearGradient>
<linearGradient id="paint4_linear_1_12" x1="214.503" y1="0" x2="214.503" y2="274.636" gradientUnits="userSpaceOnUse">
<stop stop-color="#E9E9E9"/>
<stop offset="0.0001" stop-color="white"/>
<stop offset="1" stop-color="#E9E9E9" stop-opacity="0"/>
</linearGradient>
</defs>
</svg>
