<svg width="330" height="85" viewBox="0 0 330 85" fill="none" xmlns="http://www.w3.org/2000/svg">
<path d="M6.072 20.24C4.872 20.144 3.816 19.88 2.904 19.448C2.008 19 1.28 18.416 0.72 17.696L2.808 15.416C3.32 15.96 3.864 16.384 4.44 16.688C5.032 16.992 5.656 17.192 6.312 17.288V12.872L5.76 12.776C4.224 12.504 3.088 11.944 2.352 11.096C1.616 10.232 1.248 9.184 1.248 7.952C1.248 6.592 1.664 5.488 2.496 4.64C3.328 3.792 4.52 3.264 6.072 3.056V0.535999H8.808V3.032C9.816 3.16 10.672 3.416 11.376 3.8C12.096 4.184 12.696 4.656 13.176 5.216L11.112 7.52C10.44 6.784 9.592 6.304 8.568 6.08V10.088L9.12 10.184C10.656 10.472 11.792 11.032 12.528 11.864C13.264 12.68 13.632 13.696 13.632 14.912C13.632 15.568 13.52 16.184 13.296 16.76C13.088 17.336 12.776 17.848 12.36 18.296C11.96 18.744 11.456 19.128 10.848 19.448C10.256 19.752 9.576 19.976 8.808 20.12V22.712H6.072V20.24ZM4.632 7.832C4.632 8.344 4.76 8.736 5.016 9.008C5.288 9.264 5.72 9.472 6.312 9.632V6.008C5.72 6.104 5.288 6.304 5.016 6.608C4.76 6.912 4.632 7.32 4.632 7.832ZM10.272 15.152C10.272 14.608 10.136 14.2 9.864 13.928C9.592 13.656 9.16 13.448 8.568 13.304V17.264C9.144 17.136 9.568 16.896 9.84 16.544C10.128 16.176 10.272 15.712 10.272 15.152Z" fill="#47A853"/>
<path d="M39.4373 17.768H39.3173C39.1733 18.088 39.0053 18.4 38.8133 18.704C38.6213 19.008 38.3733 19.28 38.0693 19.52C37.7813 19.744 37.4293 19.928 37.0133 20.072C36.5973 20.216 36.1013 20.288 35.5253 20.288C33.7013 20.288 32.3413 19.552 31.4453 18.08C30.5653 16.608 30.1253 14.496 30.1253 11.744C30.1253 8.864 30.6133 6.68 31.5893 5.192C32.5653 3.704 34.0693 2.96 36.1013 2.96C36.8853 2.96 37.5653 3.064 38.1413 3.272C38.7173 3.48 39.2053 3.76 39.6053 4.112C40.0213 4.464 40.3653 4.864 40.6373 5.312C40.9093 5.744 41.1333 6.184 41.3093 6.632L39.5813 7.424C39.4373 7.056 39.2693 6.712 39.0773 6.392C38.9013 6.056 38.6773 5.768 38.4053 5.528C38.1493 5.272 37.8373 5.072 37.4693 4.928C37.1013 4.784 36.6693 4.712 36.1733 4.712C34.8293 4.712 33.8373 5.216 33.1973 6.224C32.5733 7.232 32.2613 8.576 32.2613 10.256V12.848C32.2613 13.696 32.3253 14.472 32.4533 15.176C32.5813 15.864 32.7893 16.464 33.0773 16.976C33.3813 17.488 33.7653 17.888 34.2293 18.176C34.7093 18.448 35.2933 18.584 35.9813 18.584C37.0693 18.584 37.9173 18.256 38.5253 17.6C39.1333 16.944 39.4373 16.096 39.4373 15.056V13.328H35.9093V11.72H41.3093V20H39.4373V17.768ZM53.2999 17.984H53.2039C53.0759 18.288 52.9159 18.584 52.7239 18.872C52.5319 19.144 52.2919 19.384 52.0039 19.592C51.7319 19.8 51.4039 19.968 51.0199 20.096C50.6359 20.224 50.1879 20.288 49.6759 20.288C48.3799 20.288 47.3399 19.88 46.5559 19.064C45.7719 18.232 45.3799 17.064 45.3799 15.56V7.616H47.2999V15.224C47.2999 16.36 47.5479 17.208 48.0439 17.768C48.5399 18.312 49.2679 18.584 50.2279 18.584C50.6119 18.584 50.9879 18.536 51.3559 18.44C51.7239 18.344 52.0519 18.2 52.3399 18.008C52.6279 17.816 52.8599 17.576 53.0359 17.288C53.2119 16.984 53.2999 16.624 53.2999 16.208V7.616H55.2199V20H53.2999V17.984ZM64.9065 20.288C63.6105 20.288 62.4905 20.072 61.5465 19.64C60.6185 19.192 59.8265 18.6 59.1705 17.864L60.4665 16.736C61.0585 17.36 61.7065 17.84 62.4105 18.176C63.1145 18.512 63.9625 18.68 64.9545 18.68C65.9145 18.68 66.6985 18.512 67.3065 18.176C67.9305 17.824 68.2425 17.28 68.2425 16.544C68.2425 16.224 68.1785 15.96 68.0505 15.752C67.9385 15.528 67.7785 15.352 67.5705 15.224C67.3625 15.096 67.1305 15 66.8745 14.936C66.6185 14.856 66.3465 14.792 66.0585 14.744L64.1145 14.456C63.6825 14.392 63.2105 14.304 62.6985 14.192C62.2025 14.08 61.7465 13.904 61.3305 13.664C60.9145 13.408 60.5625 13.072 60.2745 12.656C60.0025 12.24 59.8665 11.696 59.8665 11.024C59.8665 10.4 59.9865 9.864 60.2265 9.416C60.4825 8.952 60.8345 8.568 61.2825 8.264C61.7305 7.944 62.2585 7.712 62.8665 7.568C63.4745 7.408 64.1385 7.328 64.8585 7.328C65.9785 7.328 66.9465 7.504 67.7625 7.856C68.5945 8.208 69.3065 8.696 69.8985 9.32L68.6505 10.496C68.5065 10.32 68.3225 10.144 68.0985 9.968C67.8905 9.776 67.6265 9.608 67.3065 9.464C67.0025 9.304 66.6425 9.176 66.2265 9.08C65.8105 8.984 65.3305 8.936 64.7865 8.936C63.8105 8.936 63.0585 9.104 62.5305 9.44C62.0185 9.776 61.7625 10.264 61.7625 10.904C61.7625 11.224 61.8185 11.496 61.9305 11.72C62.0585 11.928 62.2265 12.096 62.4345 12.224C62.6425 12.352 62.8745 12.456 63.1305 12.536C63.4025 12.6 63.6745 12.656 63.9465 12.704L65.8905 12.992C66.3385 13.056 66.8105 13.144 67.3065 13.256C67.8025 13.368 68.2585 13.552 68.6745 13.808C69.0905 14.048 69.4345 14.376 69.7065 14.792C69.9945 15.208 70.1385 15.752 70.1385 16.424C70.1385 17.656 69.6585 18.608 68.6985 19.28C67.7545 19.952 66.4905 20.288 64.9065 20.288ZM79.7531 20C78.8091 20 78.1131 19.736 77.6651 19.208C77.2331 18.68 77.0171 18 77.0171 17.168V9.248H72.8891V7.616H75.9611C76.3771 7.616 76.6651 7.536 76.8251 7.376C77.0011 7.2 77.0891 6.904 77.0891 6.488V3.248H78.9371V7.616H84.5771V9.248H78.9371V18.368H84.5771V20H79.7531ZM98.2238 20C97.4718 20 96.9358 19.808 96.6158 19.424C96.2958 19.04 96.0958 18.56 96.0158 17.984H95.8958C95.6238 18.704 95.1838 19.272 94.5758 19.688C93.9838 20.088 93.1838 20.288 92.1758 20.288C90.8798 20.288 89.8478 19.952 89.0798 19.28C88.3118 18.608 87.9277 17.688 87.9277 16.52C87.9277 15.368 88.3438 14.48 89.1758 13.856C90.0238 13.232 91.3838 12.92 93.2558 12.92H95.8958V11.696C95.8958 10.784 95.6398 10.104 95.1278 9.656C94.6158 9.192 93.8878 8.96 92.9438 8.96C92.1118 8.96 91.4318 9.128 90.9038 9.464C90.3758 9.784 89.9518 10.224 89.6318 10.784L88.3358 9.824C88.4958 9.504 88.7118 9.192 88.9838 8.888C89.2558 8.584 89.5918 8.32 89.9918 8.096C90.3918 7.856 90.8478 7.672 91.3598 7.544C91.8718 7.4 92.4398 7.328 93.0638 7.328C94.5198 7.328 95.6718 7.696 96.5198 8.432C97.3838 9.168 97.8158 10.192 97.8158 11.504V18.32H99.5438V20H98.2238ZM92.5117 18.68C93.0078 18.68 93.4558 18.624 93.8558 18.512C94.2718 18.384 94.6318 18.224 94.9358 18.032C95.2398 17.824 95.4718 17.584 95.6318 17.312C95.8078 17.024 95.8958 16.72 95.8958 16.4V14.36H93.2558C92.1038 14.36 91.2638 14.52 90.7358 14.84C90.2078 15.16 89.9438 15.624 89.9438 16.232V16.736C89.9438 17.376 90.1678 17.864 90.6158 18.2C91.0798 18.52 91.7118 18.68 92.5117 18.68ZM106.71 20L102.27 7.616H104.214L105.99 12.8L107.91 18.392H108.006L109.926 12.8L111.702 7.616H113.598L109.158 20H106.71ZM122.325 20.288C121.461 20.288 120.677 20.136 119.973 19.832C119.285 19.528 118.693 19.096 118.197 18.536C117.717 17.96 117.349 17.28 117.093 16.496C116.837 15.696 116.709 14.8 116.709 13.808C116.709 12.832 116.837 11.944 117.093 11.144C117.349 10.344 117.717 9.664 118.197 9.104C118.693 8.528 119.285 8.088 119.973 7.784C120.677 7.48 121.461 7.328 122.325 7.328C123.189 7.328 123.965 7.48 124.653 7.784C125.357 8.088 125.949 8.528 126.429 9.104C126.925 9.664 127.301 10.344 127.557 11.144C127.813 11.944 127.941 12.832 127.941 13.808C127.941 14.8 127.813 15.696 127.557 16.496C127.301 17.28 126.925 17.96 126.429 18.536C125.949 19.096 125.357 19.528 124.653 19.832C123.965 20.136 123.189 20.288 122.325 20.288ZM122.325 18.632C123.397 18.632 124.261 18.312 124.917 17.672C125.573 17.032 125.901 16.04 125.901 14.696V12.92C125.901 11.576 125.573 10.584 124.917 9.944C124.261 9.304 123.397 8.984 122.325 8.984C121.253 8.984 120.389 9.304 119.733 9.944C119.077 10.584 118.749 11.576 118.749 12.92V14.696C118.749 16.04 119.077 17.032 119.733 17.672C120.389 18.312 121.253 18.632 122.325 18.632ZM146.186 3.248H150.866C152.914 3.248 154.442 3.952 155.45 5.36C156.458 6.768 156.962 8.856 156.962 11.624C156.962 14.392 156.458 16.48 155.45 17.888C154.442 19.296 152.914 20 150.866 20H146.186V3.248ZM150.77 18.248C152.114 18.248 153.122 17.784 153.794 16.856C154.482 15.928 154.826 14.616 154.826 12.92V10.328C154.826 8.632 154.482 7.32 153.794 6.392C153.122 5.464 152.114 5 150.77 5H148.202V18.248H150.77ZM165.497 20.288C164.633 20.288 163.849 20.136 163.145 19.832C162.457 19.528 161.865 19.096 161.369 18.536C160.889 17.96 160.521 17.28 160.265 16.496C160.009 15.696 159.881 14.8 159.881 13.808C159.881 12.832 160.009 11.944 160.265 11.144C160.521 10.344 160.889 9.664 161.369 9.104C161.865 8.528 162.457 8.088 163.145 7.784C163.849 7.48 164.633 7.328 165.497 7.328C166.361 7.328 167.137 7.48 167.825 7.784C168.529 8.088 169.121 8.528 169.601 9.104C170.097 9.664 170.473 10.344 170.729 11.144C170.985 11.944 171.113 12.832 171.113 13.808C171.113 14.8 170.985 15.696 170.729 16.496C170.473 17.28 170.097 17.96 169.601 18.536C169.121 19.096 168.529 19.528 167.825 19.832C167.137 20.136 166.361 20.288 165.497 20.288ZM165.497 18.632C166.569 18.632 167.433 18.312 168.089 17.672C168.745 17.032 169.073 16.04 169.073 14.696V12.92C169.073 11.576 168.745 10.584 168.089 9.944C167.433 9.304 166.569 8.984 165.497 8.984C164.425 8.984 163.561 9.304 162.905 9.944C162.249 10.584 161.921 11.576 161.921 12.92V14.696C161.921 16.04 162.249 17.032 162.905 17.672C163.561 18.312 164.425 18.632 165.497 18.632ZM175.04 20V7.616H176.96V9.632H177.056C177.184 9.328 177.344 9.04 177.536 8.768C177.728 8.48 177.96 8.232 178.232 8.024C178.52 7.816 178.856 7.648 179.24 7.52C179.624 7.392 180.072 7.328 180.584 7.328C181.88 7.328 182.92 7.744 183.704 8.576C184.488 9.392 184.88 10.552 184.88 12.056V20H182.96V12.392C182.96 11.256 182.712 10.416 182.216 9.872C181.72 9.312 180.992 9.032 180.032 9.032C179.648 9.032 179.272 9.08 178.904 9.176C178.536 9.272 178.208 9.416 177.92 9.608C177.632 9.8 177.4 10.048 177.224 10.352C177.048 10.656 176.96 11.008 176.96 11.408V20H175.04ZM189.43 20V7.616H191.35V9.632H191.446C191.574 9.328 191.734 9.04 191.926 8.768C192.118 8.48 192.35 8.232 192.622 8.024C192.91 7.816 193.246 7.648 193.63 7.52C194.014 7.392 194.462 7.328 194.974 7.328C196.27 7.328 197.31 7.744 198.094 8.576C198.878 9.392 199.27 10.552 199.27 12.056V20H197.35V12.392C197.35 11.256 197.102 10.416 196.606 9.872C196.11 9.312 195.382 9.032 194.422 9.032C194.038 9.032 193.662 9.08 193.294 9.176C192.926 9.272 192.598 9.416 192.31 9.608C192.022 9.8 191.79 10.048 191.614 10.352C191.438 10.656 191.35 11.008 191.35 11.408V20H189.43ZM209.437 4.88C208.877 4.88 208.485 4.768 208.261 4.544C208.037 4.304 207.925 4.008 207.925 3.656V3.272C207.925 2.92 208.037 2.632 208.261 2.408C208.485 2.168 208.877 2.048 209.437 2.048C209.997 2.048 210.389 2.168 210.613 2.408C210.837 2.632 210.949 2.92 210.949 3.272V3.656C210.949 4.008 210.837 4.304 210.613 4.544C210.389 4.768 209.997 4.88 209.437 4.88ZM204.013 18.368H208.477V9.248H204.013V7.616H210.397V18.368H214.573V20H204.013V18.368ZM218.211 20V7.616H220.131V9.632H220.227C220.355 9.328 220.515 9.04 220.707 8.768C220.899 8.48 221.131 8.232 221.403 8.024C221.691 7.816 222.027 7.648 222.411 7.52C222.795 7.392 223.243 7.328 223.755 7.328C225.051 7.328 226.091 7.744 226.875 8.576C227.659 9.392 228.051 10.552 228.051 12.056V20H226.131V12.392C226.131 11.256 225.883 10.416 225.387 9.872C224.891 9.312 224.163 9.032 223.203 9.032C222.819 9.032 222.443 9.08 222.075 9.176C221.707 9.272 221.379 9.416 221.091 9.608C220.803 9.8 220.571 10.048 220.395 10.352C220.219 10.656 220.131 11.008 220.131 11.408V20H218.211ZM238.218 4.88C237.658 4.88 237.266 4.768 237.042 4.544C236.818 4.304 236.706 4.008 236.706 3.656V3.272C236.706 2.92 236.818 2.632 237.042 2.408C237.266 2.168 237.658 2.048 238.218 2.048C238.778 2.048 239.17 2.168 239.394 2.408C239.618 2.632 239.73 2.92 239.73 3.272V3.656C239.73 4.008 239.618 4.304 239.394 4.544C239.17 4.768 238.778 4.88 238.218 4.88ZM232.794 18.368H237.258V9.248H232.794V7.616H239.178V18.368H243.354V20H232.794V18.368ZM266.783 20.288C264.735 20.288 263.207 19.544 262.199 18.056C261.207 16.568 260.711 14.424 260.711 11.624C260.711 8.824 261.207 6.68 262.199 5.192C263.207 3.704 264.735 2.96 266.783 2.96C267.551 2.96 268.215 3.064 268.775 3.272C269.335 3.48 269.815 3.76 270.215 4.112C270.615 4.464 270.951 4.864 271.223 5.312C271.495 5.744 271.735 6.184 271.943 6.632L270.215 7.424C270.071 7.056 269.903 6.712 269.711 6.392C269.519 6.056 269.287 5.768 269.015 5.528C268.759 5.272 268.447 5.072 268.079 4.928C267.727 4.784 267.295 4.712 266.783 4.712C265.455 4.712 264.463 5.216 263.807 6.224C263.167 7.232 262.847 8.576 262.847 10.256V12.992C262.847 14.672 263.167 16.016 263.807 17.024C264.463 18.032 265.455 18.536 266.783 18.536C267.295 18.536 267.727 18.464 268.079 18.32C268.447 18.176 268.759 17.984 269.015 17.744C269.287 17.488 269.519 17.2 269.711 16.88C269.903 16.544 270.071 16.192 270.215 15.824L271.943 16.616C271.735 17.08 271.495 17.528 271.223 17.96C270.951 18.392 270.615 18.784 270.215 19.136C269.815 19.488 269.335 19.768 268.775 19.976C268.215 20.184 267.551 20.288 266.783 20.288ZM275.774 2.24H277.694V9.632H277.79C277.918 9.328 278.078 9.04 278.27 8.768C278.462 8.48 278.694 8.232 278.966 8.024C279.254 7.816 279.59 7.648 279.974 7.52C280.358 7.392 280.806 7.328 281.318 7.328C282.614 7.328 283.654 7.744 284.438 8.576C285.222 9.392 285.614 10.552 285.614 12.056V20H283.694V12.392C283.694 11.256 283.446 10.416 282.95 9.872C282.454 9.312 281.726 9.032 280.766 9.032C280.382 9.032 280.006 9.08 279.638 9.176C279.27 9.272 278.942 9.416 278.654 9.608C278.366 9.8 278.134 10.048 277.958 10.352C277.782 10.656 277.694 11.008 277.694 11.408V20H275.774V2.24ZM295.229 20.288C294.333 20.288 293.525 20.136 292.805 19.832C292.101 19.528 291.493 19.096 290.98 18.536C290.485 17.96 290.101 17.28 289.829 16.496C289.557 15.696 289.421 14.808 289.421 13.832C289.421 12.84 289.557 11.944 289.829 11.144C290.117 10.344 290.509 9.664 291.005 9.104C291.501 8.528 292.093 8.088 292.781 7.784C293.485 7.48 294.261 7.328 295.109 7.328C295.941 7.328 296.693 7.48 297.365 7.784C298.053 8.088 298.637 8.512 299.117 9.056C299.597 9.584 299.965 10.216 300.221 10.952C300.477 11.688 300.605 12.496 300.605 13.376V14.288H291.437V14.864C291.437 15.408 291.525 15.912 291.701 16.376C291.877 16.84 292.125 17.24 292.445 17.576C292.781 17.912 293.181 18.176 293.645 18.368C294.125 18.544 294.653 18.632 295.229 18.632C296.061 18.632 296.781 18.44 297.389 18.056C297.997 17.672 298.461 17.144 298.781 16.472L300.197 17.432C299.829 18.264 299.213 18.952 298.349 19.496C297.501 20.024 296.461 20.288 295.229 20.288ZM295.109 8.912C294.581 8.912 294.093 9.008 293.645 9.2C293.197 9.392 292.805 9.656 292.469 9.992C292.149 10.328 291.893 10.728 291.701 11.192C291.525 11.64 291.437 12.136 291.437 12.68V12.848H298.541V12.584C298.541 12.04 298.453 11.544 298.277 11.096C298.117 10.648 297.885 10.264 297.581 9.944C297.293 9.608 296.933 9.352 296.501 9.176C296.085 9 295.621 8.912 295.109 8.912ZM304.555 20V7.616H306.475V9.632H306.571C306.699 9.328 306.859 9.04 307.051 8.768C307.243 8.48 307.475 8.232 307.747 8.024C308.035 7.816 308.371 7.648 308.755 7.52C309.139 7.392 309.587 7.328 310.099 7.328C311.395 7.328 312.435 7.744 313.219 8.576C314.003 9.392 314.395 10.552 314.395 12.056V20H312.475V12.392C312.475 11.256 312.227 10.416 311.731 9.872C311.235 9.312 310.507 9.032 309.547 9.032C309.163 9.032 308.787 9.08 308.419 9.176C308.051 9.272 307.723 9.416 307.435 9.608C307.147 9.8 306.915 10.048 306.739 10.352C306.563 10.656 306.475 11.008 306.475 11.408V20H304.555ZM30.9413 82V65.248H37.0373C38.5893 65.248 39.7733 65.672 40.5893 66.52C41.4053 67.368 41.8133 68.552 41.8133 70.072C41.8133 71.592 41.4053 72.776 40.5893 73.624C39.7733 74.472 38.5893 74.896 37.0373 74.896H32.9573V82H30.9413ZM32.9573 73.144H36.9893C37.8373 73.144 38.4933 72.936 38.9573 72.52C39.4373 72.088 39.6773 71.48 39.6773 70.696V69.448C39.6773 68.664 39.4373 68.064 38.9573 67.648C38.4933 67.216 37.8373 67 36.9893 67H32.9573V73.144ZM50.9239 82.288C48.8759 82.288 47.3479 81.544 46.3399 80.056C45.3479 78.568 44.8519 76.424 44.8519 73.624C44.8519 70.824 45.3479 68.68 46.3399 67.192C47.3479 65.704 48.8759 64.96 50.9239 64.96C51.6919 64.96 52.3559 65.064 52.9159 65.272C53.4759 65.48 53.9559 65.76 54.3559 66.112C54.7559 66.464 55.0919 66.864 55.3639 67.312C55.6359 67.744 55.8759 68.184 56.0839 68.632L54.3559 69.424C54.2119 69.056 54.0439 68.712 53.8519 68.392C53.6599 68.056 53.4279 67.768 53.1559 67.528C52.8999 67.272 52.5879 67.072 52.2199 66.928C51.8679 66.784 51.4359 66.712 50.9239 66.712C49.5959 66.712 48.6039 67.216 47.9479 68.224C47.3079 69.232 46.9879 70.576 46.9879 72.256V74.992C46.9879 76.672 47.3079 78.016 47.9479 79.024C48.6039 80.032 49.5959 80.536 50.9239 80.536C51.4359 80.536 51.8679 80.464 52.2199 80.32C52.5879 80.176 52.8999 79.984 53.1559 79.744C53.4279 79.488 53.6599 79.2 53.8519 78.88C54.0439 78.544 54.2119 78.192 54.3559 77.824L56.0839 78.616C55.8759 79.08 55.6359 79.528 55.3639 79.96C55.0919 80.392 54.7559 80.784 54.3559 81.136C53.9559 81.488 53.4759 81.768 52.9159 81.976C52.3559 82.184 51.6919 82.288 50.9239 82.288ZM64.7145 82.288C63.2105 82.288 61.9785 82.016 61.0185 81.472C60.0585 80.912 59.2665 80.2 58.6425 79.336L60.1065 78.136C60.7625 78.952 61.4505 79.56 62.1705 79.96C62.9065 80.36 63.7785 80.56 64.7865 80.56C66.0025 80.56 66.9305 80.28 67.5705 79.72C68.2105 79.16 68.5305 78.376 68.5305 77.368C68.5305 76.552 68.2985 75.92 67.8345 75.472C67.3705 75.008 66.5625 74.68 65.4105 74.488L63.5385 74.176C62.7225 74.032 62.0345 73.816 61.4745 73.528C60.9305 73.24 60.4905 72.896 60.1545 72.496C59.8185 72.08 59.5785 71.632 59.4345 71.152C59.2905 70.656 59.2185 70.144 59.2185 69.616C59.2185 68.08 59.7225 66.92 60.7305 66.136C61.7385 65.352 63.0985 64.96 64.8105 64.96C66.1545 64.96 67.2825 65.184 68.1945 65.632C69.1225 66.08 69.8665 66.712 70.4265 67.528L69.0105 68.752C68.5465 68.144 67.9865 67.648 67.3305 67.264C66.6745 66.88 65.8265 66.688 64.7865 66.688C63.6505 66.688 62.7785 66.928 62.1705 67.408C61.5625 67.888 61.2585 68.608 61.2585 69.568C61.2585 70.32 61.4825 70.936 61.9305 71.416C62.3945 71.88 63.2185 72.216 64.4025 72.424L66.2025 72.736C67.0185 72.88 67.7065 73.096 68.2665 73.384C68.8265 73.672 69.2745 74.016 69.6105 74.416C69.9625 74.816 70.2105 75.264 70.3545 75.76C70.4985 76.256 70.5705 76.776 70.5705 77.32C70.5705 78.872 70.0585 80.088 69.0345 80.968C68.0265 81.848 66.5865 82.288 64.7145 82.288ZM78.4331 72.352C79.6011 72.352 80.4731 72.096 81.0491 71.584C81.6411 71.056 81.9371 70.384 81.9371 69.568V69.4C81.9371 68.504 81.6491 67.832 81.0731 67.384C80.5131 66.936 79.7771 66.712 78.8651 66.712C77.9691 66.712 77.2411 66.912 76.6811 67.312C76.1371 67.696 75.6891 68.208 75.3371 68.848L73.8251 67.696C74.0331 67.36 74.2891 67.032 74.5931 66.712C74.8971 66.376 75.2491 66.08 75.6491 65.824C76.0651 65.568 76.5371 65.36 77.0651 65.2C77.6091 65.04 78.2251 64.96 78.9131 64.96C79.6331 64.96 80.3051 65.056 80.9291 65.248C81.5531 65.424 82.0971 65.696 82.5611 66.064C83.0251 66.416 83.3851 66.856 83.6411 67.384C83.9131 67.912 84.0491 68.512 84.0491 69.184C84.0491 69.728 83.9611 70.216 83.7851 70.648C83.6251 71.08 83.3931 71.456 83.0891 71.776C82.8011 72.096 82.4571 72.368 82.0571 72.592C81.6571 72.816 81.2331 72.984 80.7851 73.096V73.192C81.2491 73.288 81.6971 73.448 82.1291 73.672C82.5611 73.88 82.9451 74.16 83.2811 74.512C83.6171 74.848 83.8811 75.264 84.0731 75.76C84.2811 76.24 84.3851 76.792 84.3851 77.416C84.3851 78.136 84.2411 78.8 83.9531 79.408C83.6811 80 83.2891 80.512 82.7771 80.944C82.2811 81.36 81.6731 81.688 80.9531 81.928C80.2491 82.168 79.4651 82.288 78.6011 82.288C77.8651 82.288 77.2091 82.208 76.6331 82.048C76.0731 81.888 75.5691 81.672 75.1211 81.4C74.6891 81.128 74.3051 80.824 73.9691 80.488C73.6491 80.152 73.3611 79.8 73.1051 79.432L74.6171 78.28C74.8411 78.616 75.0731 78.92 75.3131 79.192C75.5531 79.464 75.8251 79.704 76.1291 79.912C76.4491 80.104 76.8091 80.256 77.2091 80.368C77.6091 80.48 78.0731 80.536 78.6011 80.536C79.7851 80.536 80.6891 80.264 81.3131 79.72C81.9531 79.176 82.2731 78.4 82.2731 77.392V77.2C82.2731 76.208 81.9611 75.44 81.3371 74.896C80.7291 74.352 79.8091 74.08 78.5771 74.08H76.5851V72.352H78.4331ZM98.3678 67H90.8798L90.3998 73.408H90.5678C90.9838 72.848 91.4478 72.408 91.9598 72.088C92.4718 71.752 93.1758 71.584 94.0718 71.584C94.8078 71.584 95.4798 71.704 96.0878 71.944C96.7118 72.168 97.2478 72.504 97.6958 72.952C98.1438 73.4 98.4958 73.944 98.7518 74.584C99.0078 75.208 99.1358 75.928 99.1358 76.744C99.1358 77.56 99.0078 78.312 98.7518 79C98.4958 79.672 98.1198 80.256 97.6238 80.752C97.1278 81.232 96.5278 81.608 95.8238 81.88C95.1198 82.152 94.3198 82.288 93.4238 82.288C92.7198 82.288 92.0878 82.208 91.5278 82.048C90.9838 81.888 90.4958 81.672 90.0638 81.4C89.6478 81.128 89.2798 80.824 88.9598 80.488C88.6398 80.152 88.3518 79.8 88.0958 79.432L89.6078 78.28C89.8318 78.616 90.0558 78.92 90.2798 79.192C90.5198 79.464 90.7918 79.704 91.0958 79.912C91.3998 80.104 91.7438 80.256 92.1278 80.368C92.5118 80.48 92.9598 80.536 93.4718 80.536C94.6238 80.536 95.5038 80.224 96.1118 79.6C96.7358 78.976 97.0478 78.112 97.0478 77.008V76.816C97.0478 75.712 96.7358 74.848 96.1118 74.224C95.4878 73.6 94.5918 73.288 93.4238 73.288C92.6238 73.288 91.9998 73.424 91.5518 73.696C91.1198 73.968 90.7198 74.304 90.3518 74.704L88.6478 74.464L89.2478 65.248H98.3678V67ZM107.214 72.352C108.382 72.352 109.254 72.096 109.83 71.584C110.422 71.056 110.718 70.384 110.718 69.568V69.4C110.718 68.504 110.43 67.832 109.854 67.384C109.294 66.936 108.558 66.712 107.646 66.712C106.75 66.712 106.022 66.912 105.462 67.312C104.918 67.696 104.47 68.208 104.118 68.848L102.606 67.696C102.814 67.36 103.07 67.032 103.374 66.712C103.678 66.376 104.03 66.08 104.43 65.824C104.846 65.568 105.318 65.36 105.846 65.2C106.39 65.04 107.006 64.96 107.694 64.96C108.414 64.96 109.086 65.056 109.71 65.248C110.334 65.424 110.878 65.696 111.342 66.064C111.806 66.416 112.166 66.856 112.422 67.384C112.694 67.912 112.83 68.512 112.83 69.184C112.83 69.728 112.742 70.216 112.566 70.648C112.406 71.08 112.174 71.456 111.87 71.776C111.582 72.096 111.238 72.368 110.838 72.592C110.438 72.816 110.014 72.984 109.566 73.096V73.192C110.03 73.288 110.478 73.448 110.91 73.672C111.342 73.88 111.726 74.16 112.062 74.512C112.398 74.848 112.662 75.264 112.854 75.76C113.062 76.24 113.166 76.792 113.166 77.416C113.166 78.136 113.022 78.8 112.734 79.408C112.462 80 112.07 80.512 111.558 80.944C111.062 81.36 110.454 81.688 109.734 81.928C109.03 82.168 108.246 82.288 107.382 82.288C106.646 82.288 105.99 82.208 105.414 82.048C104.854 81.888 104.35 81.672 103.902 81.4C103.47 81.128 103.086 80.824 102.75 80.488C102.43 80.152 102.142 79.8 101.886 79.432L103.398 78.28C103.622 78.616 103.854 78.92 104.094 79.192C104.334 79.464 104.606 79.704 104.91 79.912C105.23 80.104 105.59 80.256 105.99 80.368C106.39 80.48 106.854 80.536 107.382 80.536C108.566 80.536 109.47 80.264 110.094 79.72C110.734 79.176 111.054 78.4 111.054 77.392V77.2C111.054 76.208 110.742 75.44 110.118 74.896C109.51 74.352 108.59 74.08 107.358 74.08H105.366V72.352H107.214ZM127.989 71.392C127.989 72.64 127.797 73.816 127.413 74.92C127.045 76.008 126.565 77.008 125.973 77.92C125.381 78.816 124.725 79.616 124.005 80.32C123.301 81.008 122.605 81.568 121.917 82H119.325C120.237 81.344 121.045 80.704 121.749 80.08C122.469 79.456 123.101 78.808 123.645 78.136C124.189 77.448 124.645 76.72 125.013 75.952C125.381 75.168 125.685 74.288 125.925 73.312L125.805 73.264C125.389 73.952 124.853 74.528 124.197 74.992C123.557 75.44 122.717 75.664 121.677 75.664C120.941 75.664 120.261 75.544 119.637 75.304C119.029 75.064 118.501 74.72 118.053 74.272C117.621 73.824 117.277 73.288 117.021 72.664C116.781 72.024 116.661 71.304 116.661 70.504C116.661 69.688 116.789 68.944 117.045 68.272C117.317 67.584 117.701 67 118.197 66.52C118.693 66.024 119.285 65.64 119.973 65.368C120.677 65.096 121.453 64.96 122.301 64.96C123.181 64.96 123.973 65.112 124.677 65.416C125.381 65.704 125.973 66.128 126.453 66.688C126.949 67.232 127.325 67.904 127.581 68.704C127.853 69.504 127.989 70.4 127.989 71.392ZM122.325 74.008C123.477 74.008 124.365 73.696 124.989 73.072C125.629 72.448 125.949 71.568 125.949 70.432V70.24C125.949 69.104 125.629 68.224 124.989 67.6C124.365 66.976 123.477 66.664 122.325 66.664C121.173 66.664 120.277 66.976 119.637 67.6C119.013 68.224 118.701 69.104 118.701 70.24V70.432C118.701 71.568 119.013 72.448 119.637 73.072C120.277 73.696 121.173 74.008 122.325 74.008Z" fill="#E0E0E0"/>
<path d="M6.072 51.24C4.872 51.144 3.816 50.88 2.904 50.448C2.008 50 1.28 49.416 0.72 48.696L2.808 46.416C3.32 46.96 3.864 47.384 4.44 47.688C5.032 47.992 5.656 48.192 6.312 48.288V43.872L5.76 43.776C4.224 43.504 3.088 42.944 2.352 42.096C1.616 41.232 1.248 40.184 1.248 38.952C1.248 37.592 1.664 36.488 2.496 35.64C3.328 34.792 4.52 34.264 6.072 34.056V31.536H8.808V34.032C9.816 34.16 10.672 34.416 11.376 34.8C12.096 35.184 12.696 35.656 13.176 36.216L11.112 38.52C10.44 37.784 9.592 37.304 8.568 37.08V41.088L9.12 41.184C10.656 41.472 11.792 42.032 12.528 42.864C13.264 43.68 13.632 44.696 13.632 45.912C13.632 46.568 13.52 47.184 13.296 47.76C13.088 48.336 12.776 48.848 12.36 49.296C11.96 49.744 11.456 50.128 10.848 50.448C10.256 50.752 9.576 50.976 8.808 51.12V53.712H6.072V51.24ZM4.632 38.832C4.632 39.344 4.76 39.736 5.016 40.008C5.288 40.264 5.72 40.472 6.312 40.632V37.008C5.72 37.104 5.288 37.304 5.016 37.608C4.76 37.912 4.632 38.32 4.632 38.832ZM10.272 46.152C10.272 45.608 10.136 45.2 9.864 44.928C9.592 44.656 9.16 44.448 8.568 44.304V48.264C9.144 48.136 9.568 47.896 9.84 47.544C10.128 47.176 10.272 46.712 10.272 46.152ZM6.072 82.24C4.872 82.144 3.816 81.88 2.904 81.448C2.008 81 1.28 80.416 0.72 79.696L2.808 77.416C3.32 77.96 3.864 78.384 4.44 78.688C5.032 78.992 5.656 79.192 6.312 79.288V74.872L5.76 74.776C4.224 74.504 3.088 73.944 2.352 73.096C1.616 72.232 1.248 71.184 1.248 69.952C1.248 68.592 1.664 67.488 2.496 66.64C3.328 65.792 4.52 65.264 6.072 65.056V62.536H8.808V65.032C9.816 65.16 10.672 65.416 11.376 65.8C12.096 66.184 12.696 66.656 13.176 67.216L11.112 69.52C10.44 68.784 9.592 68.304 8.568 68.08V72.088L9.12 72.184C10.656 72.472 11.792 73.032 12.528 73.864C13.264 74.68 13.632 75.696 13.632 76.912C13.632 77.568 13.52 78.184 13.296 78.76C13.088 79.336 12.776 79.848 12.36 80.296C11.96 80.744 11.456 81.128 10.848 81.448C10.256 81.752 9.576 81.976 8.808 82.12V84.712H6.072V82.24ZM4.632 69.832C4.632 70.344 4.76 70.736 5.016 71.008C5.288 71.264 5.72 71.472 6.312 71.632V68.008C5.72 68.104 5.288 68.304 5.016 68.608C4.76 68.912 4.632 69.32 4.632 69.832ZM10.272 77.152C10.272 76.608 10.136 76.2 9.864 75.928C9.592 75.656 9.16 75.448 8.568 75.304V79.264C9.144 79.136 9.568 78.896 9.84 78.544C10.128 78.176 10.272 77.712 10.272 77.152Z" fill="#47A853"/>
<path d="M30.9413 51V34.248H41.5013V36H32.9573V41.64H40.7812V43.392H32.9573V51H30.9413ZM55.0519 51C54.2999 51 53.7639 50.808 53.4439 50.424C53.1239 50.04 52.9239 49.56 52.8439 48.984H52.7239C52.4519 49.704 52.0119 50.272 51.4039 50.688C50.8119 51.088 50.0119 51.288 49.0039 51.288C47.7079 51.288 46.6759 50.952 45.9079 50.28C45.1399 49.608 44.7559 48.688 44.7559 47.52C44.7559 46.368 45.1719 45.48 46.0039 44.856C46.8519 44.232 48.2119 43.92 50.0839 43.92H52.7239V42.696C52.7239 41.784 52.4679 41.104 51.9559 40.656C51.4439 40.192 50.7159 39.96 49.7719 39.96C48.9399 39.96 48.2599 40.128 47.7319 40.464C47.2039 40.784 46.7799 41.224 46.4599 41.784L45.1639 40.824C45.3239 40.504 45.5399 40.192 45.8119 39.888C46.0839 39.584 46.4199 39.32 46.8199 39.096C47.2199 38.856 47.6759 38.672 48.1879 38.544C48.6999 38.4 49.2679 38.328 49.8919 38.328C51.3479 38.328 52.4999 38.696 53.3479 39.432C54.2119 40.168 54.6439 41.192 54.6439 42.504V49.32H56.3719V51H55.0519ZM49.3399 49.68C49.8359 49.68 50.2839 49.624 50.6839 49.512C51.0999 49.384 51.4599 49.224 51.7639 49.032C52.0679 48.824 52.2999 48.584 52.4599 48.312C52.6359 48.024 52.7239 47.72 52.7239 47.4V45.36H50.0839C48.9319 45.36 48.0919 45.52 47.5639 45.84C47.0359 46.16 46.7719 46.624 46.7719 47.232V47.736C46.7719 48.376 46.9959 48.864 47.4439 49.2C47.9079 49.52 48.5399 49.68 49.3399 49.68ZM59.8425 33.24H61.7625V40.632H61.8585C62.6585 39.096 63.9305 38.328 65.6745 38.328C67.1945 38.328 68.3785 38.896 69.2265 40.032C70.0905 41.168 70.5225 42.76 70.5225 44.808C70.5225 46.856 70.0905 48.448 69.2265 49.584C68.3785 50.72 67.1945 51.288 65.6745 51.288C63.9305 51.288 62.6585 50.52 61.8585 48.984H61.7625V51H59.8425V33.24ZM64.9305 49.584C66.0505 49.584 66.9145 49.248 67.5225 48.576C68.1465 47.888 68.4585 46.984 68.4585 45.864V43.752C68.4585 42.632 68.1465 41.736 67.5225 41.064C66.9145 40.376 66.0505 40.032 64.9305 40.032C64.4985 40.032 64.0905 40.088 63.7065 40.2C63.3225 40.312 62.9865 40.48 62.6985 40.704C62.4105 40.912 62.1785 41.176 62.0025 41.496C61.8425 41.8 61.7625 42.16 61.7625 42.576V47.04C61.7625 47.456 61.8425 47.824 62.0025 48.144C62.1785 48.448 62.4105 48.712 62.6985 48.936C62.9865 49.144 63.3225 49.304 63.7065 49.416C64.0905 49.528 64.4985 49.584 64.9305 49.584ZM79.9211 35.88C79.3611 35.88 78.9691 35.768 78.7451 35.544C78.5211 35.304 78.4091 35.008 78.4091 34.656V34.272C78.4091 33.92 78.5211 33.632 78.7451 33.408C78.9691 33.168 79.3611 33.048 79.9211 33.048C80.4811 33.048 80.8731 33.168 81.0971 33.408C81.3211 33.632 81.4331 33.92 81.4331 34.272V34.656C81.4331 35.008 81.3211 35.304 81.0971 35.544C80.8731 35.768 80.4811 35.88 79.9211 35.88ZM74.4971 49.368H78.9611V40.248H74.4971V38.616H80.8811V49.368H85.0571V51H74.4971V49.368ZM93.5438 51.288C92.6798 51.288 91.8958 51.136 91.1918 50.832C90.5038 50.528 89.9118 50.096 89.4158 49.536C88.9358 48.96 88.5678 48.28 88.3118 47.496C88.0558 46.696 87.9277 45.8 87.9277 44.808C87.9277 43.832 88.0558 42.944 88.3118 42.144C88.5678 41.344 88.9358 40.664 89.4158 40.104C89.9118 39.528 90.5038 39.088 91.1918 38.784C91.8958 38.48 92.6798 38.328 93.5438 38.328C94.4078 38.328 95.1838 38.48 95.8718 38.784C96.5758 39.088 97.1678 39.528 97.6478 40.104C98.1438 40.664 98.5198 41.344 98.7758 42.144C99.0318 42.944 99.1598 43.832 99.1598 44.808C99.1598 45.8 99.0318 46.696 98.7758 47.496C98.5198 48.28 98.1438 48.96 97.6478 49.536C97.1678 50.096 96.5758 50.528 95.8718 50.832C95.1838 51.136 94.4078 51.288 93.5438 51.288ZM93.5438 49.632C94.6158 49.632 95.4798 49.312 96.1358 48.672C96.7918 48.032 97.1198 47.04 97.1198 45.696V43.92C97.1198 42.576 96.7918 41.584 96.1358 40.944C95.4798 40.304 94.6158 39.984 93.5438 39.984C92.4718 39.984 91.6078 40.304 90.9518 40.944C90.2958 41.584 89.9678 42.576 89.9678 43.92V45.696C89.9678 47.04 90.2958 48.032 90.9518 48.672C91.6078 49.312 92.4718 49.632 93.5438 49.632ZM123.333 36V51H121.317V36H115.725V34.248H128.925V36H123.333ZM141.396 51C140.644 51 140.108 50.808 139.788 50.424C139.468 50.04 139.268 49.56 139.188 48.984H139.068C138.796 49.704 138.356 50.272 137.748 50.688C137.156 51.088 136.356 51.288 135.348 51.288C134.052 51.288 133.02 50.952 132.252 50.28C131.484 49.608 131.1 48.688 131.1 47.52C131.1 46.368 131.516 45.48 132.348 44.856C133.196 44.232 134.556 43.92 136.428 43.92H139.068V42.696C139.068 41.784 138.812 41.104 138.3 40.656C137.788 40.192 137.06 39.96 136.116 39.96C135.284 39.96 134.604 40.128 134.076 40.464C133.548 40.784 133.124 41.224 132.804 41.784L131.508 40.824C131.668 40.504 131.884 40.192 132.156 39.888C132.428 39.584 132.764 39.32 133.164 39.096C133.564 38.856 134.02 38.672 134.532 38.544C135.044 38.4 135.612 38.328 136.236 38.328C137.692 38.328 138.844 38.696 139.692 39.432C140.556 40.168 140.988 41.192 140.988 42.504V49.32H142.716V51H141.396ZM135.684 49.68C136.18 49.68 136.628 49.624 137.028 49.512C137.444 49.384 137.804 49.224 138.108 49.032C138.412 48.824 138.644 48.584 138.804 48.312C138.98 48.024 139.068 47.72 139.068 47.4V45.36H136.428C135.276 45.36 134.436 45.52 133.908 45.84C133.38 46.16 133.116 46.624 133.116 47.232V47.736C133.116 48.376 133.34 48.864 133.788 49.2C134.252 49.52 134.884 49.68 135.684 49.68ZM145.202 51V38.616H146.978V40.056H147.074C147.266 39.576 147.538 39.168 147.89 38.832C148.242 38.496 148.762 38.328 149.45 38.328C150.17 38.328 150.706 38.512 151.058 38.88C151.41 39.232 151.626 39.696 151.706 40.272H151.778C152.002 39.712 152.322 39.248 152.738 38.88C153.154 38.512 153.73 38.328 154.466 38.328C155.474 38.328 156.146 38.68 156.482 39.384C156.834 40.088 157.01 41.096 157.01 42.408V51H155.234V42.72C155.234 41.664 155.122 40.936 154.898 40.536C154.69 40.12 154.298 39.912 153.722 39.912C153.21 39.912 152.794 40.08 152.474 40.416C152.154 40.736 151.994 41.232 151.994 41.904V51H150.218V42.72C150.218 41.664 150.106 40.936 149.882 40.536C149.674 40.12 149.29 39.912 148.73 39.912C148.218 39.912 147.794 40.08 147.458 40.416C147.138 40.736 146.978 41.232 146.978 41.904V51H145.202ZM170.177 51C169.425 51 168.889 50.808 168.569 50.424C168.249 50.04 168.049 49.56 167.969 48.984H167.849C167.577 49.704 167.137 50.272 166.529 50.688C165.937 51.088 165.137 51.288 164.129 51.288C162.833 51.288 161.801 50.952 161.033 50.28C160.265 49.608 159.881 48.688 159.881 47.52C159.881 46.368 160.297 45.48 161.129 44.856C161.977 44.232 163.337 43.92 165.209 43.92H167.849V42.696C167.849 41.784 167.593 41.104 167.081 40.656C166.569 40.192 165.841 39.96 164.897 39.96C164.065 39.96 163.385 40.128 162.857 40.464C162.329 40.784 161.905 41.224 161.585 41.784L160.289 40.824C160.449 40.504 160.665 40.192 160.937 39.888C161.209 39.584 161.545 39.32 161.945 39.096C162.345 38.856 162.801 38.672 163.313 38.544C163.825 38.4 164.393 38.328 165.017 38.328C166.473 38.328 167.625 38.696 168.473 39.432C169.337 40.168 169.769 41.192 169.769 42.504V49.32H171.497V51H170.177ZM164.465 49.68C164.961 49.68 165.409 49.624 165.809 49.512C166.225 49.384 166.585 49.224 166.889 49.032C167.193 48.824 167.425 48.584 167.585 48.312C167.761 48.024 167.849 47.72 167.849 47.4V45.36H165.209C164.057 45.36 163.217 45.52 162.689 45.84C162.161 46.16 161.897 46.624 161.897 47.232V47.736C161.897 48.376 162.121 48.864 162.569 49.2C163.033 49.52 163.665 49.68 164.465 49.68ZM174.536 49.368H178.16V40.248H174.536V38.616H180.08V41.736H180.2C180.456 40.76 180.936 40 181.64 39.456C182.36 38.896 183.272 38.616 184.376 38.616H186.104V40.536H183.776C182.672 40.536 181.776 40.856 181.088 41.496C180.416 42.136 180.08 42.976 180.08 44.016V49.368H184.88V51H174.536V49.368ZM197.206 48.984H197.11C196.982 49.288 196.822 49.584 196.63 49.872C196.438 50.144 196.198 50.384 195.91 50.592C195.638 50.8 195.31 50.968 194.926 51.096C194.542 51.224 194.094 51.288 193.582 51.288C192.286 51.288 191.246 50.88 190.462 50.064C189.678 49.232 189.286 48.064 189.286 46.56V38.616H191.206V46.224C191.206 47.36 191.454 48.208 191.95 48.768C192.446 49.312 193.174 49.584 194.134 49.584C194.518 49.584 194.894 49.536 195.262 49.44C195.63 49.344 195.958 49.2 196.246 49.008C196.534 48.816 196.766 48.576 196.942 48.288C197.118 47.984 197.206 47.624 197.206 47.208V38.616H199.126V51H197.206V48.984ZM219.771 36.816H219.603V51H217.779V34.248H220.635L226.347 48.288H226.515V34.248H228.339V51H225.483L219.771 36.816ZM242.13 51C241.378 51 240.842 50.808 240.522 50.424C240.202 50.04 240.002 49.56 239.922 48.984H239.802C239.53 49.704 239.09 50.272 238.482 50.688C237.89 51.088 237.09 51.288 236.082 51.288C234.786 51.288 233.754 50.952 232.986 50.28C232.218 49.608 231.834 48.688 231.834 47.52C231.834 46.368 232.25 45.48 233.082 44.856C233.93 44.232 235.29 43.92 237.162 43.92H239.802V42.696C239.802 41.784 239.546 41.104 239.034 40.656C238.522 40.192 237.794 39.96 236.85 39.96C236.018 39.96 235.338 40.128 234.81 40.464C234.282 40.784 233.858 41.224 233.538 41.784L232.242 40.824C232.402 40.504 232.618 40.192 232.89 39.888C233.162 39.584 233.498 39.32 233.898 39.096C234.298 38.856 234.754 38.672 235.266 38.544C235.778 38.4 236.346 38.328 236.97 38.328C238.426 38.328 239.578 38.696 240.426 39.432C241.29 40.168 241.722 41.192 241.722 42.504V49.32H243.45V51H242.13ZM236.418 49.68C236.914 49.68 237.362 49.624 237.762 49.512C238.178 49.384 238.538 49.224 238.842 49.032C239.146 48.824 239.378 48.584 239.538 48.312C239.714 48.024 239.802 47.72 239.802 47.4V45.36H237.162C236.01 45.36 235.17 45.52 234.642 45.84C234.114 46.16 233.85 46.624 233.85 47.232V47.736C233.85 48.376 234.074 48.864 234.522 49.2C234.986 49.52 235.618 49.68 236.418 49.68ZM247.161 33.24H249.081V44.448H249.177L251.337 42.408L255.465 38.616H257.817L252.681 43.464L258.417 51H256.041L251.217 44.568L249.081 46.512V51H247.161V33.24ZM270.911 51C270.159 51 269.623 50.808 269.303 50.424C268.983 50.04 268.783 49.56 268.703 48.984H268.583C268.311 49.704 267.871 50.272 267.263 50.688C266.671 51.088 265.871 51.288 264.863 51.288C263.567 51.288 262.535 50.952 261.767 50.28C260.999 49.608 260.615 48.688 260.615 47.52C260.615 46.368 261.031 45.48 261.863 44.856C262.711 44.232 264.071 43.92 265.943 43.92H268.583V42.696C268.583 41.784 268.327 41.104 267.815 40.656C267.303 40.192 266.575 39.96 265.631 39.96C264.799 39.96 264.119 40.128 263.591 40.464C263.063 40.784 262.639 41.224 262.319 41.784L261.023 40.824C261.183 40.504 261.399 40.192 261.671 39.888C261.943 39.584 262.279 39.32 262.679 39.096C263.079 38.856 263.535 38.672 264.047 38.544C264.559 38.4 265.127 38.328 265.751 38.328C267.207 38.328 268.359 38.696 269.207 39.432C270.071 40.168 270.503 41.192 270.503 42.504V49.32H272.231V51H270.911ZM265.199 49.68C265.695 49.68 266.143 49.624 266.543 49.512C266.959 49.384 267.319 49.224 267.623 49.032C267.927 48.824 268.159 48.584 268.319 48.312C268.495 48.024 268.583 47.72 268.583 47.4V45.36H265.943C264.791 45.36 263.951 45.52 263.423 45.84C262.895 46.16 262.631 46.624 262.631 47.232V47.736C262.631 48.376 262.855 48.864 263.303 49.2C263.767 49.52 264.399 49.68 265.199 49.68ZM274.718 51V38.616H276.494V40.056H276.59C276.782 39.576 277.054 39.168 277.406 38.832C277.758 38.496 278.278 38.328 278.966 38.328C279.686 38.328 280.222 38.512 280.574 38.88C280.926 39.232 281.142 39.696 281.222 40.272H281.294C281.518 39.712 281.838 39.248 282.254 38.88C282.67 38.512 283.246 38.328 283.982 38.328C284.99 38.328 285.662 38.68 285.998 39.384C286.35 40.088 286.526 41.096 286.526 42.408V51H284.75V42.72C284.75 41.664 284.638 40.936 284.414 40.536C284.206 40.12 283.814 39.912 283.238 39.912C282.726 39.912 282.31 40.08 281.99 40.416C281.67 40.736 281.51 41.232 281.51 41.904V51H279.734V42.72C279.734 41.664 279.622 40.936 279.398 40.536C279.19 40.12 278.806 39.912 278.246 39.912C277.734 39.912 277.31 40.08 276.974 40.416C276.654 40.736 276.494 41.232 276.494 41.904V51H274.718ZM297.941 48.984H297.845C297.717 49.288 297.557 49.584 297.365 49.872C297.173 50.144 296.933 50.384 296.645 50.592C296.373 50.8 296.045 50.968 295.661 51.096C295.277 51.224 294.829 51.288 294.317 51.288C293.021 51.288 291.981 50.88 291.197 50.064C290.413 49.232 290.021 48.064 290.021 46.56V38.616H291.941V46.224C291.941 47.36 292.189 48.208 292.685 48.768C293.181 49.312 293.909 49.584 294.868 49.584C295.253 49.584 295.629 49.536 295.997 49.44C296.365 49.344 296.693 49.2 296.981 49.008C297.269 48.816 297.501 48.576 297.677 48.288C297.853 47.984 297.941 47.624 297.941 47.208V38.616H299.861V51H297.941V48.984ZM304.051 49.368H307.675V40.248H304.051V38.616H309.595V41.736H309.715C309.971 40.76 310.451 40 311.155 39.456C311.875 38.896 312.787 38.616 313.891 38.616H315.619V40.536H313.291C312.187 40.536 311.291 40.856 310.603 41.496C309.931 42.136 309.595 42.976 309.595 44.016V49.368H314.395V51H304.051V49.368ZM328.474 51C327.722 51 327.186 50.808 326.866 50.424C326.546 50.04 326.346 49.56 326.266 48.984H326.146C325.874 49.704 325.434 50.272 324.826 50.688C324.234 51.088 323.434 51.288 322.426 51.288C321.13 51.288 320.098 50.952 319.33 50.28C318.562 49.608 318.178 48.688 318.178 47.52C318.178 46.368 318.594 45.48 319.426 44.856C320.274 44.232 321.634 43.92 323.506 43.92H326.146V42.696C326.146 41.784 325.89 41.104 325.378 40.656C324.866 40.192 324.138 39.96 323.194 39.96C322.362 39.96 321.682 40.128 321.154 40.464C320.626 40.784 320.202 41.224 319.882 41.784L318.586 40.824C318.746 40.504 318.962 40.192 319.234 39.888C319.506 39.584 319.842 39.32 320.242 39.096C320.642 38.856 321.098 38.672 321.61 38.544C322.122 38.4 322.69 38.328 323.314 38.328C324.77 38.328 325.922 38.696 326.77 39.432C327.634 40.168 328.066 41.192 328.066 42.504V49.32H329.794V51H328.474ZM322.762 49.68C323.258 49.68 323.706 49.624 324.106 49.512C324.522 49.384 324.882 49.224 325.186 49.032C325.49 48.824 325.722 48.584 325.882 48.312C326.058 48.024 326.146 47.72 326.146 47.4V45.36H323.506C322.354 45.36 321.514 45.52 320.986 45.84C320.458 46.16 320.194 46.624 320.194 47.232V47.736C320.194 48.376 320.418 48.864 320.866 49.2C321.33 49.52 321.962 49.68 322.762 49.68Z" fill="#DADEE0"/>
</svg>
